<svg width="30" height="35" viewBox="0 0 30 35" fill="none" xmlns="http://www.w3.org/2000/svg">
<path d="M18.1608 17.0752C17.426 15.1859 15.0631 14.1706 12.8832 14.8074C10.84 15.4043 9.66018 17.2537 10.1634 19.0708C11.6629 23.589 17.1477 27.6436 22.1711 31.0889C22.5318 31.3365 23.0558 31.2839 23.3416 30.9712C23.6272 30.6586 23.5665 30.2045 23.2057 29.9568C18.384 26.6501 13.1274 22.7788 11.7645 18.6722C11.383 17.5218 12.1499 16.3213 13.4773 15.9907C14.8047 15.6601 16.1898 16.3247 16.5713 17.4751C17.481 20.2187 22.0045 23.6091 26.3081 26.5606C26.6688 26.8082 27.1928 26.7555 27.4786 26.4429C27.7642 26.1302 27.7035 25.6761 27.3427 25.4285C25.0702 23.8734 19.0522 19.7465 18.1608 17.0752Z" fill="white"/>
<path d="M24.4756 15.2139C22.6644 10.4014 16.7966 7.6829 11.1733 9.05098C5.42417 10.4806 2.10088 15.6789 3.75058 20.6615C3.75175 20.665 3.75292 20.6686 3.75409 20.6721C5.122 24.7903 2.18961 25.9325 1.25491 26.1837C0.815995 26.3033 0.57209 26.7087 0.710091 27.0891C0.848093 27.4695 1.31583 27.6809 1.75475 27.5613C4.30227 26.8711 6.77646 24.5492 5.35521 20.2721C3.9541 16.0573 6.76068 11.6563 11.6238 10.442C11.6263 10.4414 11.6289 10.4407 11.6314 10.4401C16.4398 9.26872 21.4498 11.6305 22.9277 15.7654C22.9474 15.8218 22.9754 15.8756 23.011 15.9257C23.0977 16.0499 23.276 16.3113 28.6308 20.0771C28.9878 20.3287 29.5127 20.2819 29.8029 19.9724C30.0932 19.663 30.0392 19.2082 29.6821 18.9566C27.7361 17.5878 24.8921 15.5532 24.4756 15.2139Z" fill="white"/>
<path d="M21.3662 16.2764C20.2156 12.8329 16.0688 10.8438 12.0909 11.8275C8.18511 12.8726 5.91812 16.395 6.94426 19.8243C8.62707 26.4665 7.36912 28 3.9169 28.9357C3.47798 29.0553 3.23408 29.4607 3.37208 29.8411C3.51008 30.2215 3.97782 30.4328 4.41674 30.3132C9.24015 29.0137 10.2882 26.2817 8.58201 19.5138C7.75314 16.8302 9.50553 14.056 12.5607 13.2152C15.6564 12.4535 18.8807 14.002 19.7767 16.6807C20.1099 17.6655 20.9946 19.017 27.8174 23.697C28.1781 23.9446 28.7021 23.8919 28.9879 23.5793C29.2736 23.2666 29.2128 22.8125 28.8521 22.5649C22.6591 18.3197 21.5994 16.9753 21.3662 16.2764Z" fill="white"/>
<path d="M23.6591 26.326C20.84 24.472 16.1215 21.3703 14.9603 17.873C14.8256 17.4918 14.3598 17.2773 13.9198 17.394C13.4907 17.5079 13.2427 17.8959 13.3591 18.2716C14.672 22.2309 19.667 25.5145 22.651 27.4769C23.2575 27.8553 23.8414 28.2602 24.4005 28.6898C24.7314 28.9669 25.2588 28.959 25.5784 28.6722C25.8903 28.3923 25.8903 27.9487 25.5784 27.669C24.9683 27.1904 24.3275 26.742 23.6591 26.326Z" fill="white"/>
<path d="M19.1504 31.3482C18.3084 29.9944 16.7575 29.0815 14.9951 28.9021C12.1627 28.9021 11.7245 33.0752 11.6628 33.9112C11.6343 34.3092 11.9834 34.6518 12.4426 34.6766H12.4959C12.9365 34.6773 13.3017 34.3805 13.329 33.9994C13.434 32.5121 14.0904 30.3461 14.9951 30.3461C16.2297 30.3461 17.1061 31.3771 17.8092 32.2045C18.0415 32.4915 18.2958 32.7646 18.5706 33.0218C18.9015 33.2989 19.4289 33.2909 19.7486 33.0041C20.0604 32.7243 20.0604 32.2807 19.7486 32.0009C19.5331 31.7948 19.3332 31.5768 19.1504 31.3482Z" fill="white"/>
<path d="M11.6248 25.0734C11.4682 24.6984 10.9905 24.5045 10.5579 24.6402C10.151 24.7679 9.92462 25.1444 10.037 25.5065C10.7501 27.4372 9.34888 31.2261 7.24129 31.8196C6.80221 31.9387 6.55768 32.3437 6.69506 32.7243C6.83252 33.1048 7.29986 33.3167 7.73894 33.1977C7.74472 33.1961 7.75042 33.1945 7.75612 33.1928C10.9616 32.2976 12.5078 27.4718 11.6248 25.0734Z" fill="white"/>
<path d="M29.4139 15.2196C28.3726 14.9308 27.5545 13.7756 26.6064 12.4572C24.6005 9.64724 21.8496 5.79907 14.1622 5.79907C6.3445 5.80706 0.00932073 11.2976 0.000183105 18.0729C0.000183105 18.4716 0.373185 18.7949 0.833269 18.7949C1.29335 18.7949 1.66635 18.4716 1.66635 18.0729C1.6737 12.0944 7.26397 7.24945 14.1622 7.24309C20.9217 7.24309 23.2892 10.5556 25.192 13.2182C26.3116 14.785 27.2779 16.1379 28.9008 16.5942C29.3368 16.7215 29.8093 16.5184 29.9562 16.1406C30.1031 15.7627 29.8687 15.3532 29.4328 15.2259C29.4271 15.2242 29.4214 15.2226 29.4156 15.221L29.4139 15.2196Z" fill="white"/>
<path d="M1.66617 23.8488C2.12625 23.8488 2.49926 23.5255 2.49918 23.1268C2.49918 23.0145 2.46895 22.9038 2.41093 22.8034C2.05542 22.2258 1.80417 21.6045 1.66617 20.9609C1.66617 20.5622 1.29317 20.2389 0.833086 20.2389C0.373002 20.2389 0 20.5622 0 20.9609C0.133706 21.8316 0.445791 22.6746 0.921338 23.4503C1.0627 23.6945 1.35096 23.8488 1.66617 23.8488Z" fill="white"/>
<path d="M1.2328 8.58137C1.62564 8.7889 2.13828 8.68121 2.37773 8.34074C2.3782 8.34007 2.37867 8.33946 2.37906 8.33878C3.10218 7.30488 6.66429 4.35484 13.3288 4.35484C19.7334 4.35484 24.2902 7.16625 25.1116 8.33878C25.3503 8.67972 25.8628 8.78829 26.2562 8.58137C26.6496 8.37445 26.7749 7.9303 26.5361 7.58936C25.3931 5.95765 20.3465 2.91089 13.3288 2.91089C5.86627 2.91089 1.86595 6.28836 0.952888 7.59078C0.715076 7.93138 0.840348 8.37452 1.2328 8.58137Z" fill="white"/>
<path d="M6.16455 2.84738C6.54606 2.70301 6.86931 2.55857 7.17585 2.41419C8.4288 1.86695 9.33015 1.46692 13.3288 1.46692C16.0288 1.33798 18.7293 1.71269 21.2479 2.56581C21.5661 2.66835 21.886 2.77083 22.2209 2.87046C22.3082 2.89673 22.4 2.9104 22.4925 2.91087C22.9526 2.91162 23.3262 2.58896 23.327 2.19022C23.3277 1.88116 23.1013 1.60609 22.764 1.50591C22.4408 1.40919 22.1342 1.31097 21.8277 1.21709C19.124 0.303262 16.2273 -0.103736 13.3289 0.022973C8.92372 0.022973 7.82072 0.513901 6.42118 1.13628C6.13963 1.2619 5.83973 1.39477 5.48984 1.53048C5.06233 1.67777 4.85349 2.09756 5.02336 2.46807C5.1933 2.83858 5.67767 3.01958 6.10519 2.87236C6.12706 2.86485 6.14853 2.85652 6.16954 2.84738H6.16455Z" fill="white"/>
<path d="M28.3623 12.5158C28.5189 12.8907 28.9966 13.0846 29.4292 12.9489C29.8361 12.8213 30.0625 12.4448 29.9501 12.0826C29.4774 11.0219 28.8911 10.0018 28.199 9.03585C27.9579 8.69613 27.4447 8.59007 27.0528 8.79902C26.6608 9.00797 26.5384 9.45273 26.7795 9.79245C27.3997 10.6576 27.9294 11.569 28.3623 12.5158Z" fill="white"/>
<path d="M22.6824 31.2445C22.4949 31.2443 22.3129 31.1894 22.1659 31.0885C17.1426 27.6417 11.6627 23.5886 10.1632 19.0704C9.62628 17.1317 11.0044 15.183 13.2413 14.7176C15.3379 14.2815 17.4719 15.304 18.1606 17.0748C19.0469 19.7447 25.065 23.873 27.3242 25.4267C27.6937 25.6644 27.7709 26.1166 27.4967 26.4367C27.2225 26.7569 26.7007 26.8239 26.3313 26.5862C26.3177 26.5774 26.3042 26.5682 26.2912 26.5588C21.9876 23.6073 17.4607 20.2183 16.5527 17.4733C16.1713 16.3233 14.7865 15.6591 13.4596 15.9896C12.1327 16.3202 11.3663 17.5204 11.7477 18.6703C13.1106 22.777 18.3672 26.6483 23.1873 29.955C23.548 30.2025 23.6089 30.6566 23.3233 30.9692C23.165 31.1424 22.924 31.2433 22.6691 31.243L22.6824 31.2445Z" fill="white"/>
<path d="M1.4994 27.5894C1.03932 27.5886 0.66702 27.2648 0.667879 26.8661C0.668503 26.5512 0.904597 26.273 1.2512 26.1786C2.18254 25.9259 5.11493 24.7837 3.75038 20.667C2.09702 15.6853 5.4164 10.4853 11.1644 9.05237C11.1672 9.05169 11.1701 9.05095 11.1729 9.05027C16.7969 7.68125 22.6657 10.3999 24.4769 15.2132C24.8918 15.5511 27.7359 17.5871 29.6819 18.9559C30.03 19.2165 30.0685 19.6725 29.7678 19.9743C29.48 20.2632 28.9824 20.3079 28.6322 20.0765C23.2756 16.3091 23.0974 16.0478 23.0107 15.9236C22.9762 15.8737 22.9488 15.8203 22.9291 15.7647C21.4511 11.629 16.4401 9.26707 11.6311 10.4394C6.76697 11.6506 3.9568 16.05 5.35439 20.2655C5.35454 20.266 5.3547 20.2666 5.35485 20.267C6.77439 24.5426 4.30184 26.866 1.75268 27.5562C1.67075 27.5786 1.58531 27.5899 1.4994 27.5894Z" fill="white"/>
<path d="M4.16523 30.347C3.70515 30.3462 3.33285 30.0224 3.33371 29.6237C3.33434 29.3088 3.57043 29.0306 3.91704 28.9362C7.36926 28.0005 8.62549 26.4641 6.94268 19.8247C5.91739 16.3955 8.18407 12.8737 12.0893 11.828C16.0673 10.8468 20.2125 12.8348 21.3663 16.2769C21.5979 16.9743 22.6559 18.3186 28.8388 22.5611C29.2083 22.7987 29.2856 23.2509 29.0114 23.5711C28.7372 23.8913 28.2154 23.9583 27.846 23.7206C27.8323 23.7118 27.8189 23.7026 27.8058 23.6931C20.9747 19.0117 20.09 17.6588 19.7651 16.6768C18.8723 13.9952 15.6442 12.4453 12.5475 13.2113C9.48887 14.0528 7.73633 16.8316 8.57043 19.5172C10.2849 26.2865 9.23685 29.0113 4.40516 30.3166C4.32737 30.337 4.24654 30.3472 4.16523 30.347Z" fill="white"/>
<path d="M24.9917 28.9023C24.7706 28.9026 24.5584 28.8268 24.4019 28.6914C23.8426 28.2614 23.2588 27.8561 22.6525 27.4771C19.6685 25.5147 14.6735 22.2311 13.3605 18.2718C13.2259 17.8905 13.4733 17.4868 13.9132 17.3701C14.3532 17.2534 14.819 17.4678 14.9537 17.8491C14.9565 17.8571 14.9591 17.8651 14.9616 17.8732C16.1279 21.3704 20.8397 24.4721 23.6588 26.3262C24.3276 26.7428 24.969 27.1916 25.5798 27.6705C25.9046 27.9529 25.9038 28.41 25.5779 28.6915C25.4223 28.8261 25.2116 28.9019 24.9917 28.9023Z" fill="white"/>
<path d="M12.4959 34.6789H12.4426C11.9834 34.6541 11.6343 34.3115 11.6628 33.9136C11.7228 33.0775 12.1627 28.9044 14.9951 28.9044C16.7611 29.0824 18.3159 29.9959 19.1603 31.352C19.3421 31.5809 19.5413 31.7989 19.7568 32.0047C20.0764 32.2915 20.0672 32.7485 19.7363 33.0256C19.4134 33.2959 18.9017 33.2959 18.5788 33.0256C18.3035 32.7693 18.0491 32.4966 17.8174 32.2098C17.1077 31.378 16.2313 30.347 14.995 30.347C14.0919 30.347 13.4339 32.513 13.3289 34.0018C13.3017 34.3828 12.9365 34.6796 12.4959 34.6789Z" fill="white"/>
<path d="M7.49758 33.2347C7.0375 33.2354 6.66379 32.9128 6.66293 32.5141C6.66223 32.1999 6.89598 31.9215 7.24103 31.8254C9.34698 31.2319 10.7399 27.4429 10.0367 25.5124C9.87204 25.14 10.0868 24.7225 10.5164 24.5798C10.9459 24.437 11.4277 24.6232 11.5924 24.9954C11.6045 25.0228 11.6147 25.0507 11.6229 25.0792C12.5076 27.4776 10.9564 32.299 7.75414 33.2058C7.67088 33.2269 7.58435 33.2367 7.49758 33.2347Z" fill="white"/>
<path d="M0.833269 18.7948C0.373185 18.7948 0.000183105 18.4716 0.000183105 18.0728C0.00939883 11.2975 6.3445 5.80699 14.1622 5.79907C21.8496 5.79907 24.6004 9.64724 26.6081 12.4572C27.5561 13.7814 28.3741 14.9264 29.4155 15.2196C29.8546 15.3387 30.0991 15.7437 29.9617 16.1243C29.8244 16.5048 29.3569 16.7167 28.9179 16.5977C28.9121 16.5961 28.9064 16.5945 28.9007 16.5928C27.2779 16.1365 26.3115 14.7835 25.1919 13.2168C23.2892 10.5556 20.9217 7.24309 14.1622 7.24309C7.26389 7.24945 1.67362 12.0944 1.66628 18.0729C1.66628 18.4716 1.29335 18.7948 0.833269 18.7948Z" fill="white"/>
<path d="M1.66627 23.8489C1.35044 23.8494 1.06139 23.6951 0.919879 23.4504C0.444489 22.6747 0.13303 21.8316 0.000183105 20.9609C0.000183105 20.5622 0.373185 20.2389 0.833267 20.2389C1.29335 20.2389 1.66635 20.5622 1.66635 20.9609C1.80474 21.6044 2.05591 22.2258 2.4111 22.8034C2.61721 23.1599 2.45086 23.5937 2.03951 23.7723C1.92361 23.8227 1.79584 23.8489 1.66627 23.8489Z" fill="white"/>
<path d="M25.8248 8.68725C25.5332 8.68738 25.2627 8.55539 25.1117 8.33927C24.292 7.16674 19.7335 4.35533 13.3289 4.35533C6.66447 4.35533 3.10228 7.30536 2.37752 8.33927C2.15307 8.68731 1.6455 8.81179 1.24391 8.61719C0.842325 8.42266 0.6987 7.98277 0.923236 7.63473C0.933076 7.61943 0.943619 7.60447 0.95471 7.58985C1.86605 6.28885 5.86645 2.91138 13.329 2.91138C20.3467 2.91138 25.3934 5.95814 26.5363 7.59127C26.7747 7.93234 26.6488 8.37629 26.2552 8.58281C26.1253 8.65097 25.9766 8.68711 25.8248 8.68725Z" fill="white"/>
<path d="M22.4925 2.91107C22.4001 2.9112 22.3084 2.89807 22.221 2.87208C21.8877 2.77245 21.5646 2.66848 21.2463 2.56742C18.7283 1.71417 16.0285 1.33892 13.3289 1.46712C9.3302 1.46712 8.42886 1.86707 7.18426 2.42014C6.87772 2.55734 6.55283 2.70029 6.17295 2.85333C5.75153 3.01483 5.2588 2.84968 5.07245 2.48437C4.88611 2.11914 5.07667 1.69211 5.49817 1.53061C5.8497 1.39341 6.14796 1.26061 6.43123 1.13498C7.82077 0.514094 8.92541 0.0230985 13.329 0.0230985C16.2265 -0.104964 19.1225 0.300544 21.8262 1.21295C22.1327 1.31117 22.4393 1.4108 22.7625 1.50177C23.2006 1.62361 23.4418 2.0302 23.3012 2.40985C23.1887 2.71322 22.8601 2.91696 22.4925 2.91107Z" fill="white"/>
<path d="M29.1572 13.0193C28.7949 13.0191 28.4743 12.816 28.3641 12.5168C27.9312 11.5681 27.4016 10.6548 26.7812 9.7877C26.5401 9.44799 26.6624 9.00322 27.0545 8.79427C27.4465 8.58533 27.9597 8.69132 28.2008 9.03111C28.8923 9.99719 29.4779 11.0172 29.9502 12.0779C30.0901 12.4577 29.8481 12.864 29.4098 12.9851C29.3282 13.0077 29.2429 13.0193 29.1572 13.0193Z" fill="white"/>
</svg>
