<svg width="23" height="21" viewBox="0 0 23 21" fill="none" xmlns="http://www.w3.org/2000/svg">
<path d="M21.0597 12.3936C21.0597 12.7887 20.8994 13.146 20.6403 13.4047C20.3808 13.6634 20.0229 13.8234 19.6276 13.8234H3.05778C2.26716 13.8234 1.62567 13.1834 1.62567 12.3936C1.62567 12.182 1.67152 11.9815 1.75389 11.8011C1.82557 11.6442 1.92441 11.5029 2.04502 11.3824C2.30454 11.1237 2.66247 10.9637 3.05778 10.9637H19.6276C20.2068 10.9637 20.7058 11.3068 20.9315 11.8011C21.0138 11.9815 21.0597 12.182 21.0597 12.3936Z" fill="#884D00"/>
<path d="M20.9315 11.8012C20.8598 11.9576 20.7606 12.0994 20.6404 12.2194C20.3809 12.4781 20.0229 12.6381 19.6276 12.6381H3.05779C2.47909 12.6381 1.98007 12.295 1.75391 11.8012C1.82559 11.6443 1.92438 11.503 2.04503 11.3825C2.30455 11.1239 2.66248 10.9639 3.05779 10.9639H19.6276C20.2068 10.9638 20.7058 11.307 20.9315 11.8012Z" fill="#AA6100"/>
<path d="M22.2915 14.9776C22.2915 16.8199 21.4372 18.1887 20.0563 19.0968C18.675 20.0052 16.767 20.4528 14.6596 20.4528H8.02579C3.81103 20.4528 0.393951 18.6621 0.393951 14.9776C0.393951 14.7723 0.445145 14.5776 0.537739 14.4025C0.616091 14.2531 0.724253 14.1185 0.855596 14.0038C1.14052 13.7545 1.53493 13.6002 1.96985 13.6002H20.7156C21.3509 13.6002 21.8984 13.9291 22.1477 14.4025C22.2403 14.5776 22.2915 14.7723 22.2915 14.9776Z" fill="#FFA733"/>
<path d="M22.1477 14.4025C21.8503 15.6292 21.1051 16.5847 20.0563 17.2745C18.675 18.1829 16.767 18.6305 14.6596 18.6305H8.0258C4.3176 18.6305 1.22731 17.2447 0.53775 14.4025C0.616102 14.2531 0.724264 14.1185 0.855606 14.0038C1.14053 13.7545 1.53494 13.6002 1.96986 13.6002H20.7156C21.3509 13.6002 21.8984 13.9291 22.1477 14.4025Z" fill="#FFB655"/>
<path d="M17.4324 10.3638L13.7278 14.0625C13.6347 14.1549 13.5354 14.2367 13.4304 14.3074C12.646 14.8376 11.5714 14.7563 10.8765 14.0625L7.17184 10.3638H17.4324Z" fill="#EEBF00"/>
<path d="M17.4324 10.3638L13.7277 14.0625C13.6347 14.1549 13.5354 14.2367 13.4304 14.3074C13.1477 14.2114 12.8824 14.0509 12.6571 13.8256L9.18973 10.3638H17.4324Z" fill="#FFD422"/>
<path d="M21.8757 10.8797C21.8757 11.0735 21.8436 11.2717 21.7742 11.4651C21.5022 12.2229 20.7739 12.5171 20.2063 12.0984L19.5257 11.5966C19.0507 11.246 18.4448 11.3895 18.1011 11.9344L18.0722 11.9802C17.7423 12.5037 17.1672 12.6593 16.6975 12.3526L15.1733 11.3575C14.8216 11.1282 14.4 11.1531 14.0671 11.4237L12.8456 12.4157C12.4948 12.7006 12.0478 12.7126 11.6877 12.4464L10.2943 11.4153C9.93819 11.1517 9.4966 11.1601 9.14714 11.4375L7.87845 12.4433C7.53789 12.7131 7.10964 12.7287 6.75753 12.4847L5.11487 11.3451C4.79167 11.1211 4.40218 11.1148 4.07453 11.3286L2.5423 12.3291C1.52197 12.4602 1.02564 11.7122 1.02564 11.7122C0.781259 11.2882 0.756753 10.7855 0.888994 10.3637C1.04613 9.85976 1.42677 9.47131 1.92177 9.47131H20.7642C21.2494 9.47131 21.6371 9.85399 21.7965 10.3615C21.8481 10.5242 21.8757 10.6998 21.8757 10.8797Z" fill="#6DC82A"/>
<path d="M21.7965 10.3616C21.7898 10.3838 21.7822 10.4056 21.7742 10.4278C21.5022 11.1861 20.774 11.4803 20.2064 11.0616L19.5257 10.5594C19.0507 10.2092 18.4449 10.3527 18.1012 10.8972L18.0722 10.9434C17.7424 11.4669 17.1672 11.6225 16.6976 11.3158L15.1733 10.3207C14.8216 10.0909 14.4001 10.1163 14.0671 10.3869L12.8456 11.3789C12.4948 11.6638 12.0479 11.6754 11.6877 11.4092L10.2944 10.3781C9.93824 10.1145 9.49666 10.1234 9.1472 10.4003L7.87847 11.4065C7.5379 11.6758 7.10966 11.6918 6.75754 11.4478L5.11489 10.3082C4.79168 10.0838 4.40219 10.0776 4.07454 10.2918L2.54231 11.2918C1.52198 11.4234 1.02565 10.6749 1.02565 10.6749C0.968215 10.5749 0.922838 10.4705 0.889008 10.3638C1.04614 9.8598 1.42678 9.47131 1.92178 9.47131H20.7642C21.2493 9.47136 21.6371 9.85404 21.7965 10.3616Z" fill="#7ED63E"/>
<path d="M21.4955 8.55663C21.4986 8.70463 21.479 8.84729 21.4408 8.98197C21.2685 9.58109 20.7156 10.0193 20.0603 10.0193C17.4873 10.0193 10.634 9.96155 9.60035 9.99575C9.57721 9.99665 9.55408 9.99754 9.53137 9.99797C8.22615 10.0473 7.92878 10.2562 7.92878 10.9509V13.4927C7.92878 13.6233 7.87579 13.742 7.78992 13.8278C7.70399 13.9136 7.58557 13.9664 7.45469 13.9664C7.19248 13.9664 6.98013 14.1784 6.98013 14.4402V15.5474C6.98013 15.6598 6.96679 15.7687 6.94096 15.8736C6.79452 16.479 6.24738 16.9283 5.59033 16.9283H5.55517C4.80817 16.9283 4.20364 16.3225 4.20586 15.5767L4.21211 13.5727C4.21254 13.4189 4.27532 13.2793 4.37638 13.1789C4.47787 13.078 4.61721 13.0158 4.77169 13.0158C5.08065 13.0158 5.33128 12.7656 5.33128 12.4571V10.9509C5.33128 10.4362 4.91373 10.0193 4.39824 10.0193H2.65225C1.86655 10.0193 1.20548 9.40021 1.18944 8.61577C1.1734 7.81087 1.82246 7.15308 2.62509 7.15308H20.0318C20.818 7.15308 21.4799 7.77219 21.4955 8.55663Z" fill="#FF3501"/>
<path d="M21.4955 8.55663C21.4986 8.70463 21.479 8.84729 21.4407 8.98196C18.7168 8.97932 12.2081 8.92552 11.2029 8.95839C9.83895 9.00327 9.53136 9.20729 9.53136 9.91398V9.99797C8.22614 10.0473 7.92877 10.2562 7.92877 10.9509V13.4927C7.92877 13.6233 7.87578 13.742 7.7899 13.8278C7.70398 13.9136 7.58556 13.9664 7.45468 13.9664C7.19247 13.9664 6.98012 14.1784 6.98012 14.4402V15.5474C6.98012 15.6598 6.96678 15.7687 6.94095 15.8736C6.29724 15.77 5.80621 15.2114 5.80844 14.5393L5.81468 12.5358C5.81511 12.3815 5.87789 12.2424 5.97895 12.142C6.08044 12.0411 6.21978 11.9789 6.37426 11.9789C6.68322 11.9789 6.93385 11.7286 6.93385 11.4202V9.91394C6.93385 9.39927 6.5163 8.98239 6.00081 8.98239H4.25482C3.46912 8.98239 2.80805 8.36328 2.79201 7.57884C2.78889 7.43084 2.80848 7.28818 2.84722 7.15308H20.0318C20.8179 7.15308 21.4799 7.77219 21.4955 8.55663Z" fill="#FF5023"/>
<path d="M13.2832 5.69617L10.1069 8.86866C9.78863 9.18643 9.41334 9.41266 9.01358 9.54643C8.02798 9.8789 6.89551 9.65267 6.11113 8.86866L2.93359 5.69617H13.2832Z" fill="#EEBF00"/>
<path d="M13.2832 5.69617L10.1069 8.86866C9.78863 9.18643 9.41334 9.41266 9.01358 9.54644C8.61425 9.41266 8.239 9.18643 7.92114 8.86866L4.74356 5.69617H13.2832Z" fill="#FFD422"/>
<path d="M22.2915 6.14241C22.2915 6.16598 22.2906 6.18908 22.2892 6.21218C22.2719 6.5104 22.1437 6.77928 21.9451 6.97754C21.731 7.19134 21.4354 7.32333 21.1087 7.32333H1.57676C0.923683 7.32328 0.393951 6.7944 0.393951 6.14241C0.393951 4.72729 1.05101 3.66192 2.04328 2.86057C2.84857 2.2099 3.8751 1.73298 4.94975 1.38323C7.95638 0.405906 11.3427 0.424096 11.3427 0.424096C11.3427 0.424096 22.2915 0.364999 22.2915 6.14241Z" fill="#FFA733"/>
<path d="M22.2915 6.14241C22.2915 6.16598 22.2906 6.18908 22.2892 6.21218H3.9806C3.32757 6.21218 2.79779 5.6833 2.79779 5.03127C2.79779 3.61614 3.45484 2.55078 4.44712 1.74947C4.60647 1.62055 4.7743 1.49882 4.94969 1.38323C7.95637 0.405906 11.3427 0.424096 11.3427 0.424096C11.3427 0.424096 22.2915 0.364999 22.2915 6.14241Z" fill="#FFB655"/>
<path d="M17.2277 2.49002C17.4175 2.69063 17.4085 3.0069 17.2076 3.19649C17.0067 3.38604 16.6899 3.37707 16.5001 3.17651C16.3102 2.97595 15.9608 2.28092 16.1617 2.09133C16.3626 1.90174 17.0378 2.28937 17.2277 2.49002Z" fill="#FFF5CC"/>
<path d="M14.5745 4.95985C14.6736 5.2175 14.5448 5.50658 14.2867 5.60552C14.0286 5.70445 13.7391 5.5758 13.64 5.31814C13.5409 5.06049 13.4827 4.28501 13.7407 4.18608C13.9988 4.08718 14.4754 4.70219 14.5745 4.95985Z" fill="#FFF5CC"/>
<path d="M11.8432 2.90441C11.8432 3.18042 11.6191 3.40413 11.3427 3.40413C11.0663 3.40413 10.8422 3.18038 10.8422 2.90441C10.8422 2.6284 11.0663 1.88367 11.3427 1.88367C11.6192 1.88362 11.8432 2.6284 11.8432 2.90441Z" fill="#FFF5CC"/>
<path d="M9.09112 5.27293C9.02201 5.54015 8.74897 5.70083 8.48132 5.63182C8.21368 5.56282 8.05274 5.29022 8.12185 5.02301C8.19097 4.75579 8.59449 4.09065 8.86218 4.15965C9.12983 4.22866 9.16023 5.00576 9.09112 5.27293Z" fill="#FFF5CC"/>
<path d="M6.33746 3.09616C6.21693 3.34451 5.9176 3.44835 5.66877 3.32802C5.42003 3.20769 5.31601 2.90884 5.43654 2.66041C5.55706 2.41206 6.08392 1.83928 6.33275 1.95965C6.58154 2.08003 6.45798 2.84782 6.33746 3.09616Z" fill="#FFF5CC"/>
</svg>
